<svg width="500" height="399" viewBox="0 0 500 399" fill="none" xmlns="http://www.w3.org/2000/svg">
<rect x="16.0073" y="29.8503" width="465.16" height="344.274" fill="#F4F4F4"/>
<path d="M11.8826 21.5918H488.353L489.614 23.0843V380.294L488.353 381.786H11.8826L10.6221 380.294V23.0843L11.8826 21.5918ZM91.2943 56.4172H56.0002V98.2078H91.2943V56.4172ZM179.53 56.4172H145.076V98.2078H179.53V56.4172ZM268.605 56.4172H233.311V98.2078H268.605V56.4172ZM356.841 56.4172H322.387V98.2078H356.841V56.4172ZM445.916 56.4172H410.622V98.2078H445.916V56.4172ZM466.084 119.103H34.1515V284.275H251.799L232.891 244.494L197.177 275.32V137.013L298.857 206.167L258.53 228.117L285.832 284.275H466.084V119.103ZM91.2943 305.17H56.0002V346.961H91.2943V305.17ZM179.53 305.17H145.076V346.961H179.53V305.17ZM268.605 305.17H233.311V346.961H268.605V305.17ZM356.841 305.17H322.387V346.961H356.841V305.17ZM445.916 305.17H410.622V346.961H445.916V305.17Z" fill="#23D18B"/>
</svg>
